<svg xmlns="http://www.w3.org/2000/svg" viewBox="0 0 100 100">
  <defs>
    <linearGradient id="sunGradient" gradientTransform="rotate(45)">
      <stop offset="5%" stop-color="#FFC700" />
      <stop offset="95%" stop-color="#FFA800" />
    </linearGradient>
    <filter id="shadow" x="-20%" y="-20%" width="140%" height="140%">
      <feGaussianBlur in="SourceAlpha" stdDeviation="1.5" result="blur"/>
      <feOffset in="blur" dx="1" dy="1" result="offsetBlur"/>
      <feMerge>
        <feMergeNode in="offsetBlur"/>
        <feMergeNode in="SourceGraphic"/>
      </feMerge>
    </filter>
  </defs>
  <circle cx="50" cy="50" r="30" fill="url(#sunGradient)" filter="url(#shadow)"/>
  <path d="M50,20 L50,5 A-10,10 0 0,0 50,20 M80,50 L95,50 A-10,10 0 0,0 80,50 M50,80 L50,95 A-10,10 0 0,0 50,80 M20,50 L5,50 A-10,10 0 0,0 20,50" fill="none" stroke="#FFC700" stroke-width="4" stroke-linecap="round"/>
  <path d="M71.2,28.8 L82.5,17.5 M71.2,71.2 L82.5,82.5 M28.8,28.8 L17.5,17.5 M28.8,71.2 L17.5,82.5" fill="none" stroke="#FFC700" stroke-width="4" stroke-linecap="round"/>
  <path d="M60,40 C55,30 40,35 40,50 C40,65 60,60 60,70" fill="none" stroke="#2E8B57" stroke-width="3" stroke-linecap="round"/>
  <path d="M50,45 C45,35 30,40 30,55 C30,70 50,65 50,75" fill="none" stroke="#3CB371" stroke-width="2.5" stroke-linecap="round"/>
</svg>